<svg width="40" height="40" viewBox="0 0 40 40" fill="none" xmlns="http://www.w3.org/2000/svg">
	<g clip-path="url(#clip0_2014_79)">
		<path
			d="M28.6195 24.2411C28.6286 24.444 28.6267 24.6559 28.6177 24.8715C28.6286 24.6613 28.6286 24.4494 28.6195 24.2411ZM14.8083 17.168C14.8083 17.168 14.8102 17.168 14.8102 17.1716C14.8192 17.1173 14.8283 17.0629 14.8392 17.0068C14.8265 17.0611 14.8174 17.1136 14.8083 17.168ZM14.8392 17.0068C14.8609 16.8981 14.8862 16.7876 14.9171 16.6807C14.8862 16.7858 14.8591 16.8945 14.8392 17.0068Z"
			fill="white" />
		<path
			d="M28.6178 24.871C28.6124 24.9869 28.6051 25.1047 28.5961 25.2223C28.5743 25.4778 28.5453 25.735 28.5073 25.9886C28.4983 26.052 28.4874 26.1135 28.4783 26.1733C28.462 26.2729 28.4439 26.3725 28.4258 26.4685C28.4258 26.483 28.4204 26.4957 28.4185 26.5084C28.3986 26.6116 28.3769 26.7185 28.3552 26.8254C28.3425 26.8779 28.3316 26.9322 28.319 26.9865C28.2809 27.1478 28.2411 27.3072 28.1994 27.4611C28.165 27.5897 28.1287 27.7129 28.0907 27.8288C28.0382 27.9936 27.982 28.1422 27.9277 28.2617C27.9132 28.2925 27.8987 28.3233 27.8842 28.3505C27.8625 28.394 27.8408 28.432 27.8208 28.4646C26.9133 32.2122 24.3794 34.038 20.0811 34.038C19.9399 34.038 19.7968 34.0362 19.6519 34.0325C14.2994 33.8858 12.6295 30.8609 12.2455 29.9354C11.568 28.3106 11.1949 24.0614 11.1949 21.7447C11.1949 19.6056 10.7258 17.5008 10.7204 17.479L10.6859 17.3016C10.4722 16.2437 10.1516 14.6462 9.764 12.9708C9.56113 12.0887 9.71867 11.2699 10.1987 10.7265C10.6008 10.2701 11.2004 10.0564 11.8868 10.1234C13.4265 10.2774 13.8104 12.1991 14.0387 13.3475C14.122 13.7604 14.1872 14.1952 14.2524 14.6172C14.3864 15.4866 14.5241 16.3833 14.8084 17.1675C14.8084 17.1675 14.8091 17.1687 14.8103 17.1712C14.8193 17.1168 14.8284 17.0625 14.8392 17.0063C14.861 16.8976 14.8863 16.7872 14.9171 16.6803C14.9334 16.6259 14.9498 16.5734 14.9679 16.5209C14.9841 16.4756 15.0023 16.4303 15.0204 16.3868C15.0312 16.3615 15.0421 16.3362 15.0548 16.3108C15.062 16.2908 15.0729 16.2709 15.082 16.251C15.0964 16.2238 15.111 16.1967 15.1254 16.1713C15.1291 16.1623 15.1345 16.1532 15.1418 16.1459C15.1562 16.117 15.1725 16.0898 15.1906 16.0644C15.2142 16.0264 15.2395 15.992 15.2667 15.9594C15.8681 15.2077 16.4947 15.2077 16.9114 15.2077C17.1305 15.2077 18.1901 15.253 18.739 16.0735C18.7752 16.1296 18.8096 16.1876 18.8404 16.2492C18.8658 16.1115 18.8929 15.9884 18.9256 15.8833C18.9817 15.695 19.0614 15.5301 19.1556 15.3852C19.1719 15.3616 19.1881 15.3381 19.2045 15.3145C19.2389 15.2693 19.2751 15.2258 19.3113 15.1842C19.7352 14.7078 20.3637 14.5249 20.8745 14.5249C20.9741 14.5249 21.1009 14.5303 21.2458 14.5502C21.2748 14.5538 21.3038 14.5574 21.3328 14.5647C21.3599 14.5683 21.3871 14.572 21.4143 14.5792C21.4578 14.5864 21.5012 14.5973 21.5446 14.6082C21.59 14.619 21.6352 14.6317 21.6805 14.6462C21.7493 14.668 21.82 14.6915 21.8906 14.7223C21.9124 14.7313 21.9359 14.7422 21.9594 14.7531C21.983 14.764 22.0065 14.7748 22.0301 14.7875C22.3109 14.927 22.5898 15.1425 22.8144 15.4667C22.8343 15.4939 22.8524 15.5211 22.8705 15.5501C22.8578 15.1334 22.8361 14.6534 22.8144 14.1336C22.751 12.594 22.6767 10.8497 22.7437 9.50213C22.8651 7.08402 23.6114 5.9574 25.0912 5.9574C26.8771 5.9574 27.0837 7.92086 27.0837 9.39883C27.0837 11.6123 27.0837 14.6444 27.2648 17.1748C27.2829 17.4338 27.3028 17.7544 27.3245 18.1094C27.3933 19.2161 27.4875 20.7303 27.6252 21.6903C27.647 21.8316 27.6741 22.0127 27.7067 22.2228C27.714 22.2283 27.7212 22.2355 27.7266 22.2428C27.8806 22.3841 28.0201 22.5326 28.1378 22.6865C28.1595 22.7137 28.1776 22.7391 28.1957 22.7663C28.27 22.8695 28.3334 22.9745 28.386 23.0833C28.3986 23.1104 28.4113 23.1376 28.4222 23.1629C28.4457 23.2155 28.4656 23.2698 28.4837 23.3242C28.4928 23.3513 28.5019 23.3785 28.5091 23.4056C28.5164 23.4328 28.5236 23.46 28.5291 23.4872C28.5562 23.6067 28.5761 23.7335 28.5906 23.8621C28.5997 23.9418 28.607 24.0233 28.6124 24.1066C28.616 24.1501 28.6196 24.1954 28.6196 24.2407C28.6286 24.4435 28.6268 24.6555 28.6178 24.871Z"
			fill="#FFC83C" />
		<path
			d="M14.8392 17.0068C14.8609 16.8981 14.8862 16.7876 14.9171 16.6807C14.8862 16.7858 14.8591 16.8945 14.8392 17.0068ZM14.8083 17.168C14.8083 17.168 14.8102 17.168 14.8102 17.1716C14.8192 17.1173 14.8283 17.0629 14.8392 17.0068C14.8265 17.0611 14.8174 17.1136 14.8083 17.168ZM27.7302 27.7731C27.8823 27.3221 28.049 26.6411 28.154 25.9183C28.0453 26.6447 27.8751 27.3275 27.7302 27.7731ZM28.6195 24.2411C28.6286 24.444 28.6267 24.6559 28.6177 24.8715C28.6286 24.6613 28.6286 24.4494 28.6195 24.2411Z"
			fill="black" />
		<path
			d="M28.6196 24.2407C28.6196 24.1954 28.616 24.1501 28.6124 24.1066C28.607 24.0233 28.5997 23.9418 28.5906 23.8621C28.5761 23.7335 28.5562 23.6067 28.5291 23.4872C28.5236 23.46 28.5164 23.4328 28.5091 23.4056C28.5019 23.3785 28.4928 23.3513 28.4837 23.3242C28.4656 23.2698 28.4457 23.2155 28.4222 23.1629C28.4113 23.1376 28.3986 23.1104 28.386 23.0833C28.3334 22.9745 28.27 22.8695 28.1957 22.7663C28.1776 22.7391 28.1595 22.7137 28.1378 22.6865C28.0201 22.5326 27.8806 22.3841 27.7266 22.2428C27.7212 22.2355 27.714 22.2283 27.7067 22.2228C27.6741 22.0127 27.647 21.8316 27.6252 21.6903C27.4875 20.7303 27.3933 19.2161 27.3245 18.1094C27.3028 17.7544 27.2829 17.4338 27.2648 17.1748C27.0837 14.6444 27.0837 11.6123 27.0837 9.39883C27.0837 7.92086 26.8771 5.9574 25.0912 5.9574C23.6114 5.9574 22.8651 7.08402 22.7437 9.50213C22.6767 10.8497 22.751 12.594 22.8144 14.1336C22.8361 14.6534 22.8578 15.1334 22.8705 15.5501C22.8524 15.5211 22.8343 15.4939 22.8144 15.4667C22.5898 15.1425 22.3109 14.927 22.0301 14.7875C22.0065 14.7748 21.983 14.764 21.9594 14.7531C21.9359 14.7422 21.9124 14.7313 21.8906 14.7223C21.82 14.6915 21.7493 14.668 21.6805 14.6462C21.6352 14.6317 21.59 14.619 21.5446 14.6082C21.5012 14.5973 21.4578 14.5864 21.4143 14.5792C21.3871 14.572 21.3599 14.5683 21.3328 14.5647C21.3038 14.5574 21.2748 14.5538 21.2458 14.5502C21.1009 14.5303 20.9741 14.5249 20.8745 14.5249C20.3637 14.5249 19.7352 14.7078 19.3113 15.1842C19.2751 15.2258 19.2389 15.2693 19.2045 15.3145C19.1881 15.3381 19.1719 15.3616 19.1556 15.3852C19.0614 15.5301 18.9817 15.695 18.9256 15.8833C18.8929 15.9884 18.8658 16.1115 18.8404 16.2492C18.8096 16.1876 18.7752 16.1296 18.739 16.0735C18.1901 15.253 17.1305 15.2077 16.9114 15.2077C16.4947 15.2077 15.8681 15.2077 15.2667 15.9594C15.2395 15.992 15.2142 16.0264 15.1906 16.0644C15.1725 16.0898 15.1562 16.117 15.1418 16.1459C15.1345 16.1532 15.1291 16.1623 15.1254 16.1713C15.111 16.1967 15.0964 16.2238 15.082 16.251C15.0729 16.2709 15.062 16.2908 15.0548 16.3108C15.0421 16.3362 15.0312 16.3615 15.0204 16.3868C15.0023 16.4303 14.9841 16.4756 14.9679 16.5209C14.9498 16.5734 14.9334 16.6259 14.9171 16.6803C14.8863 16.7872 14.861 16.8976 14.8392 17.0063C14.8284 17.0625 14.8193 17.1168 14.8103 17.1712C14.8103 17.1712 14.8097 17.1699 14.8084 17.1675C14.5241 16.3833 14.3864 15.4866 14.2524 14.6172C14.1872 14.1952 14.122 13.7604 14.0387 13.3475C13.8104 12.1991 13.4265 10.2774 11.8868 10.1234C11.2004 10.0564 10.6008 10.2701 10.1987 10.7265C9.71867 11.2699 9.56113 12.0887 9.764 12.9708C10.1516 14.6462 10.4722 16.2437 10.6859 17.3016L10.7204 17.479C10.7258 17.5008 11.1949 19.6056 11.1949 21.7447C11.1949 24.0614 11.568 28.3106 12.2455 29.9354C12.6295 30.8609 14.2994 33.8858 19.6519 34.0325C19.7968 34.0362 19.9399 34.038 20.0811 34.038C24.3794 34.038 26.9133 32.2122 27.8208 28.4646C27.8408 28.432 27.8625 28.394 27.8842 28.3505C27.8987 28.3233 27.9132 28.2925 27.9277 28.2617C27.982 28.1422 28.0382 27.9936 28.0907 27.8288C28.1287 27.7129 28.165 27.5897 28.1994 27.4611C28.2411 27.3072 28.2809 27.1478 28.319 26.9865C28.3316 26.9322 28.3425 26.8779 28.3552 26.8254C28.3769 26.7185 28.3986 26.6116 28.4185 26.5084C28.4204 26.4957 28.424 26.483 28.4258 26.4685C28.4439 26.3725 28.462 26.2729 28.4783 26.1733C28.4874 26.1135 28.4983 26.052 28.5073 25.9886C28.5453 25.735 28.5743 25.4778 28.5961 25.2223C28.6051 25.1047 28.6124 24.9869 28.6178 24.871C28.6268 24.6555 28.6286 24.4435 28.6196 24.2407ZM23.106 9.52023C23.2491 6.68373 24.2417 6.31966 25.0912 6.31966C26.2178 6.31966 26.7213 7.26879 26.7213 9.39883C26.7213 11.5289 26.7213 14.6589 26.9025 17.2002C26.9206 17.4591 26.9405 17.7779 26.9641 18.1329C27.0329 19.2451 27.1271 20.7684 27.2665 21.7429C27.2738 21.7882 27.2811 21.8371 27.2883 21.8896C26.1689 21.08 24.6166 20.5728 23.9446 20.4514C23.8143 20.4279 23.5968 20.4115 23.3179 20.3989C23.4484 19.361 23.4973 17.671 23.2418 16.5173C23.2437 16.5064 23.2437 16.4955 23.2437 16.4865C23.2527 15.9395 23.2183 15.0954 23.1766 14.1191C23.1133 12.5868 23.0408 10.8515 23.106 9.52023ZM19.0921 17.1567V17.153C19.103 16.9846 19.1175 16.8234 19.1375 16.6713C19.1411 16.6314 19.1465 16.5934 19.1519 16.5571C19.1592 16.5009 19.1682 16.4466 19.1791 16.3941C19.1881 16.3416 19.1972 16.2891 19.2099 16.2402C19.219 16.1931 19.2298 16.1477 19.2407 16.1025C19.2498 16.0626 19.2606 16.0246 19.2715 15.9884C19.516 15.1751 20.2877 14.8871 20.8745 14.8871C21.2331 14.8871 22.0246 14.9741 22.5173 15.6768C22.5735 15.7547 22.6242 15.8416 22.6695 15.9358C22.6858 15.9666 22.7003 15.9993 22.7147 16.0318C22.7293 16.0644 22.7437 16.1007 22.7564 16.1351C22.7818 16.2021 22.8053 16.2709 22.8253 16.3452C22.8705 16.4992 22.9086 16.6676 22.9412 16.8469C23.0299 17.3631 23.0662 17.9681 23.0662 18.5604C23.0662 19.2342 23.0208 19.8917 22.9557 20.388C21.9341 20.3627 20.418 20.3862 19.3023 20.4098C19.1972 19.8283 19.123 19.1727 19.0904 18.5278C19.0668 18.0515 19.065 17.5841 19.0921 17.1567ZM15.1091 17.8703C15.111 17.8141 15.1145 17.758 15.1182 17.7018C15.1272 17.5624 15.1399 17.4265 15.158 17.2943C15.1599 17.2853 15.1616 17.278 15.1616 17.2708C15.1743 17.1838 15.1888 17.0987 15.207 17.019C15.216 16.9755 15.2269 16.932 15.2359 16.8904C15.2559 16.8089 15.2775 16.731 15.3048 16.6585C15.3174 16.6205 15.3301 16.5843 15.3446 16.5498C15.3591 16.5136 15.3735 16.4792 15.3899 16.4466C15.4062 16.4141 15.4225 16.3833 15.4388 16.3524C15.4732 16.2908 15.5094 16.2365 15.5493 16.1858C15.5801 16.1477 15.6109 16.1115 15.6416 16.0771C15.6724 16.0427 15.7032 16.0101 15.734 15.983C15.7956 15.9214 15.8554 15.8724 15.9152 15.829C16.0727 15.7131 16.2267 15.6496 16.3752 15.6152H16.3771C16.426 15.6025 16.4748 15.5935 16.5237 15.5881C16.6578 15.57 16.7864 15.57 16.9114 15.57C17.0907 15.57 17.9366 15.6044 18.3966 16.2166C18.4455 16.28 18.489 16.3506 18.527 16.4267C18.5415 16.4557 18.5542 16.4847 18.5669 16.5118C18.6013 16.5879 18.6285 16.6604 18.6484 16.7328C18.6575 16.7545 18.6629 16.7781 18.6684 16.7998C18.6774 16.8288 18.6828 16.856 18.6882 16.8832C18.6955 16.9122 18.7009 16.9411 18.7064 16.9701C18.71 16.9973 18.7154 17.0226 18.719 17.0498C18.7227 17.0806 18.7263 17.1132 18.7281 17.144C18.7336 17.191 18.7371 17.2382 18.739 17.2853C18.739 17.2961 18.7408 17.307 18.7408 17.3178C18.739 17.3197 18.739 17.3233 18.7408 17.3251C18.7371 17.3994 18.7354 17.4755 18.7335 17.5534V17.5823C18.7317 17.6529 18.7299 17.7236 18.7299 17.796V17.9192C18.7299 17.9989 18.7317 18.0786 18.7335 18.1601C18.7335 18.2416 18.7371 18.3231 18.7408 18.4065C18.7498 18.7216 18.7698 19.044 18.7987 19.3682C18.8223 19.6237 18.8621 20.0058 18.9291 20.4188C18.326 20.4333 17.9039 20.446 17.846 20.4478C17.2157 20.4478 16.5781 20.8825 16.5781 21.7157C16.5781 21.944 16.6252 22.2102 16.7212 22.4855C16.3662 22.3388 15.9912 22.0345 15.7123 21.3353C15.5873 21.0238 15.4841 20.7068 15.399 20.3572C15.312 20.0094 15.2413 19.6291 15.178 19.1908C15.12 18.7814 15.0928 18.3177 15.1091 17.8703ZM28.2646 24.7134C28.2627 24.8021 28.2592 24.8927 28.2537 24.9833C28.2537 24.9887 28.2519 24.996 28.2519 25.0032C28.2465 25.0956 28.2392 25.188 28.232 25.2803C28.2302 25.2912 28.2302 25.3021 28.2284 25.3129C28.2103 25.5122 28.1849 25.7132 28.1559 25.9107C28.1559 25.9143 28.1559 25.9161 28.1541 25.9179C28.0491 26.6406 27.8824 27.3216 27.7303 27.7727C27.7031 27.8542 27.6759 27.9303 27.6505 27.9955C27.6379 28.0299 27.6234 28.0625 27.6107 28.0915C27.5926 28.135 27.5763 28.1712 27.5582 28.202C27.5419 28.2364 27.5256 28.2617 27.5093 28.2781C27.5093 28.2781 27.5056 28.2835 27.5039 28.2853L27.4712 28.3287V28.3686C27.1398 29.7506 26.1345 33.846 19.6627 33.6703C14.5277 33.5308 12.9428 30.6708 12.5787 29.7977C11.9213 28.2146 11.5572 24.0324 11.5572 21.7447C11.5572 19.457 11.079 17.4211 11.0754 17.403L11.0409 17.2291C10.8272 16.1713 10.5048 14.5701 10.1154 12.8892C9.9433 12.1339 10.0755 11.4148 10.4704 10.9656C10.7566 10.6414 11.1551 10.4729 11.6333 10.4729C11.7039 10.4729 11.7764 10.4766 11.8506 10.4856C13.0243 10.6016 13.4119 12.0615 13.6837 13.42C13.7651 13.8239 13.8303 14.255 13.8938 14.6715C14.0495 15.6823 14.2089 16.7256 14.6001 17.6221C14.6345 17.7018 14.6834 17.7761 14.7451 17.8468C14.7251 18.3286 14.7578 18.8195 14.8193 19.2414C14.9479 20.1508 15.1145 20.8173 15.3772 21.4712C15.7032 22.2863 16.1941 22.7536 16.9168 22.9256C17.2247 23.4944 17.7518 24.0251 18.5216 24.2443C19.1791 24.4327 19.9616 24.4327 20.6535 24.4327C21.2766 24.4327 21.8671 24.4327 22.0935 24.583C22.5771 24.9054 22.5681 25.2441 22.5572 25.5701C22.5572 25.6136 22.5554 25.6589 22.5554 25.7006H22.9176C22.9176 25.6625 22.9194 25.6209 22.9194 25.5792C22.9303 25.2151 22.9448 24.7152 22.2927 24.2823C21.9757 24.0704 21.3925 24.0704 20.6535 24.0704C19.987 24.0704 19.2298 24.0704 18.6194 23.8965C18.067 23.7389 17.6558 23.3839 17.3805 22.9836C17.2954 22.8604 17.2229 22.7318 17.1632 22.6051C17.0128 22.2881 16.9404 21.9693 16.9404 21.7157C16.9404 21.0926 17.4095 20.8101 17.8514 20.8101C17.8659 20.8101 18.3278 20.7955 18.9907 20.7811C19.1121 20.7774 19.2389 20.7738 19.3711 20.772C20.467 20.7484 21.9178 20.7268 22.8995 20.7466C23.0299 20.7503 23.1513 20.7539 23.2636 20.7575C23.5407 20.7684 23.7563 20.7847 23.8794 20.8064C24.6855 20.9531 26.3573 21.5473 27.3698 22.4058C27.3915 22.4257 27.4133 22.4456 27.435 22.4656C27.4694 22.4945 27.502 22.5235 27.5346 22.5579H27.5364C27.5636 22.5833 27.5908 22.6087 27.6143 22.6358C27.6198 22.6395 27.6234 22.6431 27.6252 22.6467C27.6488 22.6703 27.6705 22.692 27.6904 22.7155C27.7158 22.7427 27.7393 22.7698 27.7629 22.7971C27.7846 22.8206 27.8027 22.8442 27.8208 22.8677C27.8408 22.8912 27.8571 22.9129 27.8733 22.9365C27.8914 22.9601 27.9078 22.9836 27.9223 23.0072C27.9404 23.0307 27.9549 23.0543 27.9675 23.0778C27.9983 23.123 28.0237 23.1702 28.0472 23.2173C28.069 23.2607 28.0889 23.3042 28.107 23.3477C28.107 23.3531 28.1106 23.3585 28.1124 23.3622C28.1215 23.3857 28.1287 23.4075 28.136 23.431C28.1505 23.4763 28.1632 23.5216 28.174 23.5668C28.2501 23.9074 28.2754 24.3004 28.2646 24.7134Z"
			fill="black" />
	</g>
	<defs>
		<clipPath id="clip0_2014_79">
			<rect width="40" height="40" fill="white" />
		</clipPath>
	</defs>
</svg>