<svg width="843" height="526" viewBox="0 0 843 526" fill="none" xmlns="http://www.w3.org/2000/svg">
<rect width="843" height="526" fill="#FEEFEC"/>
<rect x="330.417" y="171.917" width="182.166" height="182.166" rx="44.132" fill="white"/>
<path d="M458.785 210.178C448.414 202.728 436.066 198.521 423.304 198.088C410.541 197.655 397.937 201.017 387.085 207.747C376.233 214.478 367.621 224.275 362.337 235.901C357.053 247.526 355.336 260.457 357.401 273.059C359.466 285.66 365.222 297.366 373.94 306.697C382.659 316.027 393.948 322.563 406.381 325.477C418.814 328.391 431.831 327.553 443.788 323.069C455.744 318.585 466.103 310.656 473.553 300.285C478.5 293.399 482.042 285.606 483.977 277.351C485.912 269.096 486.202 260.54 484.831 252.173C483.459 243.806 480.453 235.791 475.984 228.585C471.515 221.38 465.671 215.125 458.785 210.178V210.178Z" fill="#F4603E"/>
<path d="M367.703 298.864C367.703 298.864 410.37 284.852 485.569 260.269C485.569 260.269 489.688 300.527 448.06 321.527C448.06 321.527 427.532 331.391 405.012 325.063C405.012 325.063 382.586 320.819 367.703 298.864Z" fill="#1E1870"/>
</svg>
